<svg width="431" height="47" viewBox="0 0 431 47" fill="none" xmlns="http://www.w3.org/2000/svg">
<rect width="360" height="2" transform="translate(30 14)" fill="black"/>
<circle cx="19" cy="14" r="13.5" fill="#FF4900" stroke="white"/>
<path d="M25.2222 10.1111L16.6667 18.6666L12.7777 14.7778" stroke="white" stroke-width="3" stroke-linecap="round" stroke-linejoin="round"/>
<path d="M1.624 43C1.53067 43 1.456 42.972 1.4 42.916C1.344 42.86 1.316 42.7853 1.316 42.692V33.522C1.316 33.4193 1.344 33.34 1.4 33.284C1.456 33.228 1.53067 33.2 1.624 33.2H1.876C1.97867 33.2 2.058 33.228 2.114 33.284C2.17 33.34 2.198 33.4193 2.198 33.522V37.61H7.602V33.522C7.602 33.4193 7.63 33.34 7.686 33.284C7.742 33.228 7.81667 33.2 7.91 33.2H8.162C8.26467 33.2 8.344 33.228 8.4 33.284C8.456 33.34 8.484 33.4193 8.484 33.522V42.692C8.484 42.7853 8.456 42.86 8.4 42.916C8.344 42.972 8.26467 43 8.162 43H7.91C7.81667 43 7.742 42.972 7.686 42.916C7.63 42.86 7.602 42.7853 7.602 42.692V38.45H2.198V42.692C2.198 42.7853 2.17 42.86 2.114 42.916C2.058 42.972 1.97867 43 1.876 43H1.624ZM13.7087 43.14C13.0367 43.14 12.4721 43 12.0147 42.72C11.5667 42.44 11.2214 42.0573 10.9787 41.572C10.7454 41.0867 10.6194 40.5453 10.6007 39.948C10.5914 39.808 10.5867 39.612 10.5867 39.36C10.5867 39.108 10.5914 38.912 10.6007 38.772C10.6194 38.1653 10.7454 37.624 10.9787 37.148C11.2214 36.6627 11.5667 36.28 12.0147 36C12.4721 35.72 13.0367 35.58 13.7087 35.58C14.3807 35.58 14.9407 35.72 15.3887 36C15.8461 36.28 16.1914 36.6627 16.4247 37.148C16.6674 37.624 16.7981 38.1653 16.8167 38.772C16.8261 38.912 16.8307 39.108 16.8307 39.36C16.8307 39.612 16.8261 39.808 16.8167 39.948C16.7981 40.5453 16.6674 41.0867 16.4247 41.572C16.1914 42.0573 15.8461 42.44 15.3887 42.72C14.9407 43 14.3807 43.14 13.7087 43.14ZM13.7087 42.328C14.3621 42.328 14.8941 42.118 15.3047 41.698C15.7154 41.278 15.9347 40.6713 15.9627 39.878C15.9721 39.738 15.9767 39.5653 15.9767 39.36C15.9767 39.1547 15.9721 38.982 15.9627 38.842C15.9347 38.0393 15.7154 37.4327 15.3047 37.022C14.8941 36.602 14.3621 36.392 13.7087 36.392C13.0554 36.392 12.5234 36.602 12.1127 37.022C11.7021 37.4327 11.4827 38.0393 11.4547 38.842C11.4454 38.982 11.4407 39.1547 11.4407 39.36C11.4407 39.5653 11.4454 39.738 11.4547 39.878C11.4827 40.6713 11.7021 41.278 12.1127 41.698C12.5234 42.118 13.0554 42.328 13.7087 42.328ZM19.0514 43C18.958 43 18.8834 42.972 18.8274 42.916C18.7714 42.86 18.7434 42.7853 18.7434 42.692V36.028C18.7434 35.9347 18.7714 35.86 18.8274 35.804C18.8834 35.748 18.958 35.72 19.0514 35.72H19.2894C19.3827 35.72 19.4574 35.748 19.5134 35.804C19.5694 35.86 19.5974 35.9347 19.5974 36.028V36.518C19.8307 36.2193 20.106 35.9907 20.4234 35.832C20.75 35.664 21.142 35.58 21.5994 35.58C22.6447 35.58 23.3914 36.0187 23.8394 36.896C24.054 36.4947 24.3667 36.1773 24.7774 35.944C25.1974 35.7013 25.678 35.58 26.2194 35.58C26.714 35.58 27.1574 35.6967 27.5494 35.93C27.9507 36.154 28.2634 36.49 28.4874 36.938C28.7207 37.386 28.8374 37.946 28.8374 38.618V42.692C28.8374 42.7853 28.8094 42.86 28.7534 42.916C28.6974 42.972 28.6227 43 28.5294 43H28.2914C28.198 43 28.1234 42.972 28.0674 42.916C28.0114 42.86 27.9834 42.7853 27.9834 42.692V38.758C27.9834 38.142 27.8947 37.666 27.7174 37.33C27.54 36.9847 27.3067 36.742 27.0174 36.602C26.728 36.462 26.4154 36.392 26.0794 36.392C25.7994 36.392 25.5147 36.462 25.2254 36.602C24.936 36.742 24.6934 36.9847 24.4974 37.33C24.3107 37.666 24.2174 38.142 24.2174 38.758V42.692C24.2174 42.7853 24.1894 42.86 24.1334 42.916C24.0774 42.972 24.0027 43 23.9094 43H23.6714C23.578 43 23.5034 42.972 23.4474 42.916C23.3914 42.86 23.3634 42.7853 23.3634 42.692V38.758C23.3634 38.142 23.27 37.666 23.0834 37.33C22.8967 36.9847 22.6587 36.742 22.3694 36.602C22.08 36.462 21.7767 36.392 21.4594 36.392C21.1794 36.392 20.8947 36.462 20.6054 36.602C20.316 36.742 20.0734 36.9847 19.8774 37.33C19.6907 37.666 19.5974 38.1373 19.5974 38.744V42.692C19.5974 42.7853 19.5694 42.86 19.5134 42.916C19.4574 42.972 19.3827 43 19.2894 43H19.0514ZM33.7364 43.14C32.8311 43.14 32.1124 42.846 31.5804 42.258C31.0484 41.6607 30.7451 40.8813 30.6704 39.92C30.6611 39.78 30.6564 39.5933 30.6564 39.36C30.6564 39.1267 30.6611 38.94 30.6704 38.8C30.7171 38.1653 30.8664 37.6053 31.1184 37.12C31.3704 36.6347 31.7157 36.2567 32.1544 35.986C32.6024 35.7153 33.1297 35.58 33.7364 35.58C34.3897 35.58 34.9451 35.7247 35.4024 36.014C35.8597 36.3033 36.2097 36.7187 36.4524 37.26C36.7044 37.8013 36.8304 38.4453 36.8304 39.192V39.402C36.8304 39.4953 36.7977 39.57 36.7324 39.626C36.6764 39.682 36.6017 39.71 36.5084 39.71H31.5244C31.5244 39.71 31.5244 39.7287 31.5244 39.766C31.5244 39.8033 31.5244 39.8313 31.5244 39.85C31.5431 40.27 31.6411 40.6713 31.8184 41.054C31.9957 41.4273 32.2477 41.7353 32.5744 41.978C32.9011 42.2113 33.2884 42.328 33.7364 42.328C34.1377 42.328 34.4691 42.2673 34.7304 42.146C35.0011 42.0247 35.2157 41.894 35.3744 41.754C35.5331 41.6047 35.6357 41.4927 35.6824 41.418C35.7664 41.2967 35.8317 41.2267 35.8784 41.208C35.9251 41.18 35.9997 41.166 36.1024 41.166H36.3264C36.4104 41.166 36.4804 41.194 36.5364 41.25C36.6017 41.2967 36.6297 41.362 36.6204 41.446C36.6111 41.5767 36.5364 41.74 36.3964 41.936C36.2657 42.1227 36.0744 42.3093 35.8224 42.496C35.5797 42.6827 35.2811 42.8367 34.9264 42.958C34.5717 43.0793 34.1751 43.14 33.7364 43.14ZM31.5244 38.926H35.9764V38.87C35.9764 38.4033 35.8877 37.9833 35.7104 37.61C35.5331 37.2367 35.2764 36.9427 34.9404 36.728C34.6044 36.504 34.2031 36.392 33.7364 36.392C33.2697 36.392 32.8684 36.504 32.5324 36.728C32.2057 36.9427 31.9537 37.2367 31.7764 37.61C31.6084 37.9833 31.5244 38.4033 31.5244 38.87V38.926Z" fill="black"/>
<circle cx="206" cy="14" r="13.5" fill="#FF4900" stroke="white"/>
<path d="M212.222 10.1111L203.667 18.6666L199.778 14.7778" stroke="white" stroke-width="3" stroke-linecap="round" stroke-linejoin="round"/>
<path d="M152.616 43C152.541 43 152.476 42.972 152.42 42.916C152.364 42.86 152.336 42.7947 152.336 42.72C152.336 42.6733 152.345 42.622 152.364 42.566L155.906 33.48C155.943 33.3867 155.99 33.3167 156.046 33.27C156.111 33.2233 156.2 33.2 156.312 33.2H156.788C156.9 33.2 156.984 33.2233 157.04 33.27C157.105 33.3167 157.157 33.3867 157.194 33.48L160.736 42.566C160.755 42.622 160.764 42.6733 160.764 42.72C160.764 42.7947 160.736 42.86 160.68 42.916C160.624 42.972 160.559 43 160.484 43H160.204C160.111 43 160.041 42.9767 159.994 42.93C159.947 42.874 159.915 42.8273 159.896 42.79L159.028 40.55H154.072L153.204 42.79C153.195 42.8273 153.162 42.874 153.106 42.93C153.059 42.9767 152.989 43 152.896 43H152.616ZM154.408 39.71H158.692L156.55 34.194L154.408 39.71ZM162.561 45.66C162.468 45.66 162.393 45.632 162.337 45.576C162.281 45.52 162.253 45.4453 162.253 45.352V36.028C162.253 35.9347 162.281 35.86 162.337 35.804C162.393 35.748 162.468 35.72 162.561 35.72H162.799C162.893 35.72 162.967 35.748 163.023 35.804C163.079 35.86 163.107 35.9347 163.107 36.028V36.686C163.341 36.3687 163.644 36.1073 164.017 35.902C164.4 35.6873 164.881 35.58 165.459 35.58C166.01 35.58 166.472 35.678 166.845 35.874C167.219 36.0607 167.522 36.3127 167.755 36.63C167.989 36.9473 168.161 37.302 168.273 37.694C168.385 38.086 168.446 38.4873 168.455 38.898C168.465 39.038 168.469 39.192 168.469 39.36C168.469 39.528 168.465 39.682 168.455 39.822C168.446 40.2327 168.385 40.634 168.273 41.026C168.161 41.418 167.989 41.7727 167.755 42.09C167.522 42.4073 167.219 42.664 166.845 42.86C166.472 43.0467 166.01 43.14 165.459 43.14C164.881 43.14 164.4 43.0327 164.017 42.818C163.644 42.6033 163.341 42.342 163.107 42.034V45.352C163.107 45.4453 163.079 45.52 163.023 45.576C162.967 45.632 162.893 45.66 162.799 45.66H162.561ZM165.375 42.328C165.926 42.328 166.36 42.2067 166.677 41.964C166.995 41.7213 167.223 41.404 167.363 41.012C167.503 40.62 167.583 40.2 167.601 39.752C167.611 39.4907 167.611 39.2293 167.601 38.968C167.583 38.52 167.503 38.1 167.363 37.708C167.223 37.316 166.995 36.9987 166.677 36.756C166.36 36.5133 165.926 36.392 165.375 36.392C164.843 36.392 164.414 36.518 164.087 36.77C163.761 37.022 163.518 37.3393 163.359 37.722C163.21 38.0953 163.126 38.4733 163.107 38.856C163.098 38.996 163.093 39.178 163.093 39.402C163.093 39.626 163.098 39.808 163.107 39.948C163.117 40.3213 163.201 40.69 163.359 41.054C163.527 41.418 163.775 41.7213 164.101 41.964C164.437 42.2067 164.862 42.328 165.375 42.328ZM170.696 45.66C170.603 45.66 170.528 45.632 170.472 45.576C170.416 45.52 170.388 45.4453 170.388 45.352V36.028C170.388 35.9347 170.416 35.86 170.472 35.804C170.528 35.748 170.603 35.72 170.696 35.72H170.934C171.028 35.72 171.102 35.748 171.158 35.804C171.214 35.86 171.242 35.9347 171.242 36.028V36.686C171.476 36.3687 171.779 36.1073 172.152 35.902C172.535 35.6873 173.016 35.58 173.594 35.58C174.145 35.58 174.607 35.678 174.98 35.874C175.354 36.0607 175.657 36.3127 175.89 36.63C176.124 36.9473 176.296 37.302 176.408 37.694C176.52 38.086 176.581 38.4873 176.59 38.898C176.6 39.038 176.604 39.192 176.604 39.36C176.604 39.528 176.6 39.682 176.59 39.822C176.581 40.2327 176.52 40.634 176.408 41.026C176.296 41.418 176.124 41.7727 175.89 42.09C175.657 42.4073 175.354 42.664 174.98 42.86C174.607 43.0467 174.145 43.14 173.594 43.14C173.016 43.14 172.535 43.0327 172.152 42.818C171.779 42.6033 171.476 42.342 171.242 42.034V45.352C171.242 45.4453 171.214 45.52 171.158 45.576C171.102 45.632 171.028 45.66 170.934 45.66H170.696ZM173.51 42.328C174.061 42.328 174.495 42.2067 174.812 41.964C175.13 41.7213 175.358 41.404 175.498 41.012C175.638 40.62 175.718 40.2 175.736 39.752C175.746 39.4907 175.746 39.2293 175.736 38.968C175.718 38.52 175.638 38.1 175.498 37.708C175.358 37.316 175.13 36.9987 174.812 36.756C174.495 36.5133 174.061 36.392 173.51 36.392C172.978 36.392 172.549 36.518 172.222 36.77C171.896 37.022 171.653 37.3393 171.494 37.722C171.345 38.0953 171.261 38.4733 171.242 38.856C171.233 38.996 171.228 39.178 171.228 39.402C171.228 39.626 171.233 39.808 171.242 39.948C171.252 40.3213 171.336 40.69 171.494 41.054C171.662 41.418 171.91 41.7213 172.236 41.964C172.572 42.2067 172.997 42.328 173.51 42.328ZM178.831 43C178.738 43 178.663 42.972 178.607 42.916C178.551 42.86 178.523 42.7853 178.523 42.692V33.368C178.523 33.2747 178.551 33.2 178.607 33.144C178.663 33.088 178.738 33.06 178.831 33.06H179.069C179.162 33.06 179.237 33.088 179.293 33.144C179.349 33.2 179.377 33.2747 179.377 33.368V42.692C179.377 42.7853 179.349 42.86 179.293 42.916C179.237 42.972 179.162 43 179.069 43H178.831ZM181.962 43C181.868 43 181.794 42.972 181.738 42.916C181.682 42.86 181.654 42.7853 181.654 42.692V36.028C181.654 35.9347 181.682 35.86 181.738 35.804C181.794 35.748 181.868 35.72 181.962 35.72H182.2C182.293 35.72 182.368 35.748 182.424 35.804C182.48 35.86 182.508 35.9347 182.508 36.028V42.692C182.508 42.7853 182.48 42.86 182.424 42.916C182.368 42.972 182.293 43 182.2 43H181.962ZM181.808 34.222C181.714 34.222 181.64 34.194 181.584 34.138C181.528 34.082 181.5 34.0073 181.5 33.914V33.382C181.5 33.2887 181.528 33.214 181.584 33.158C181.64 33.0927 181.714 33.06 181.808 33.06H182.34C182.433 33.06 182.508 33.0927 182.564 33.158C182.629 33.214 182.662 33.2887 182.662 33.382V33.914C182.662 34.0073 182.629 34.082 182.564 34.138C182.508 34.194 182.433 34.222 182.34 34.222H181.808ZM187.529 43.14C186.875 43.14 186.32 43.014 185.863 42.762C185.405 42.5007 185.055 42.1273 184.813 41.642C184.579 41.1567 184.453 40.5827 184.435 39.92C184.425 39.78 184.421 39.5933 184.421 39.36C184.421 39.1267 184.425 38.94 184.435 38.8C184.453 38.128 184.579 37.554 184.813 37.078C185.055 36.5927 185.405 36.224 185.863 35.972C186.32 35.7107 186.875 35.58 187.529 35.58C188.023 35.58 188.448 35.65 188.803 35.79C189.167 35.9207 189.465 36.098 189.699 36.322C189.932 36.5367 190.109 36.7747 190.231 37.036C190.352 37.2973 190.417 37.554 190.427 37.806C190.436 37.8993 190.408 37.974 190.343 38.03C190.277 38.086 190.203 38.114 190.119 38.114H189.923C189.829 38.114 189.759 38.0953 189.713 38.058C189.675 38.0113 189.633 37.932 189.587 37.82C189.391 37.288 189.12 36.9193 188.775 36.714C188.439 36.4993 188.023 36.392 187.529 36.392C186.894 36.392 186.367 36.588 185.947 36.98C185.536 37.3627 185.317 37.9927 185.289 38.87C185.27 39.1967 185.27 39.5233 185.289 39.85C185.317 40.7273 185.536 41.362 185.947 41.754C186.367 42.1367 186.894 42.328 187.529 42.328C188.023 42.328 188.439 42.2253 188.775 42.02C189.12 41.8053 189.391 41.432 189.587 40.9C189.633 40.788 189.675 40.7133 189.713 40.676C189.759 40.6293 189.829 40.606 189.923 40.606H190.119C190.203 40.606 190.277 40.634 190.343 40.69C190.408 40.746 190.436 40.8207 190.427 40.914C190.417 41.1193 190.375 41.3247 190.301 41.53C190.226 41.7353 190.109 41.936 189.951 42.132C189.801 42.328 189.615 42.5007 189.391 42.65C189.167 42.7993 188.896 42.916 188.579 43C188.271 43.0933 187.921 43.14 187.529 43.14ZM194.237 43.14C193.789 43.14 193.373 43.0467 192.991 42.86C192.617 42.6733 192.314 42.426 192.081 42.118C191.847 41.8007 191.731 41.446 191.731 41.054C191.731 40.4193 191.987 39.9107 192.501 39.528C193.014 39.1453 193.681 38.898 194.503 38.786L196.715 38.478V37.988C196.715 37.4933 196.561 37.106 196.253 36.826C195.954 36.5367 195.473 36.392 194.811 36.392C194.325 36.392 193.933 36.49 193.635 36.686C193.336 36.8727 193.131 37.12 193.019 37.428C192.972 37.568 192.883 37.638 192.753 37.638H192.529C192.417 37.638 192.337 37.61 192.291 37.554C192.244 37.4887 192.221 37.414 192.221 37.33C192.221 37.1993 192.267 37.036 192.361 36.84C192.463 36.644 192.617 36.4527 192.823 36.266C193.028 36.07 193.294 35.9067 193.621 35.776C193.947 35.6453 194.344 35.58 194.811 35.58C195.361 35.58 195.814 35.6547 196.169 35.804C196.533 35.9533 196.813 36.1493 197.009 36.392C197.214 36.6253 197.359 36.8867 197.443 37.176C197.527 37.4653 197.569 37.75 197.569 38.03V42.692C197.569 42.7853 197.541 42.86 197.485 42.916C197.429 42.972 197.354 43 197.261 43H197.023C196.929 43 196.855 42.972 196.799 42.916C196.743 42.86 196.715 42.7853 196.715 42.692V42.034C196.603 42.202 196.444 42.37 196.239 42.538C196.033 42.706 195.767 42.8507 195.441 42.972C195.123 43.084 194.722 43.14 194.237 43.14ZM194.377 42.328C194.806 42.328 195.198 42.2347 195.553 42.048C195.907 41.8613 196.187 41.5767 196.393 41.194C196.607 40.802 196.715 40.312 196.715 39.724V39.248L194.909 39.5C194.143 39.6027 193.565 39.78 193.173 40.032C192.781 40.284 192.585 40.6013 192.585 40.984C192.585 41.292 192.673 41.544 192.851 41.74C193.028 41.936 193.252 42.0853 193.523 42.188C193.803 42.2813 194.087 42.328 194.377 42.328ZM202.164 43C201.679 43 201.296 42.8973 201.016 42.692C200.736 42.4867 200.54 42.2067 200.428 41.852C200.316 41.4973 200.26 41.1007 200.26 40.662V36.532H199.168C199.075 36.532 199 36.504 198.944 36.448C198.888 36.392 198.86 36.3173 198.86 36.224V36.028C198.86 35.9347 198.888 35.86 198.944 35.804C199 35.748 199.075 35.72 199.168 35.72H200.26V33.368C200.26 33.2747 200.288 33.2 200.344 33.144C200.4 33.088 200.475 33.06 200.568 33.06H200.806C200.899 33.06 200.974 33.088 201.03 33.144C201.086 33.2 201.114 33.2747 201.114 33.368V35.72H202.85C202.943 35.72 203.018 35.748 203.074 35.804C203.13 35.86 203.158 35.9347 203.158 36.028V36.224C203.158 36.3173 203.13 36.392 203.074 36.448C203.018 36.504 202.943 36.532 202.85 36.532H201.114V40.606C201.114 41.1007 201.193 41.488 201.352 41.768C201.52 42.048 201.814 42.188 202.234 42.188H202.99C203.083 42.188 203.158 42.216 203.214 42.272C203.27 42.328 203.298 42.4027 203.298 42.496V42.692C203.298 42.7853 203.27 42.86 203.214 42.916C203.158 42.972 203.083 43 202.99 43H202.164ZM205.053 43C204.96 43 204.885 42.972 204.829 42.916C204.773 42.86 204.745 42.7853 204.745 42.692V36.028C204.745 35.9347 204.773 35.86 204.829 35.804C204.885 35.748 204.96 35.72 205.053 35.72H205.291C205.385 35.72 205.459 35.748 205.515 35.804C205.571 35.86 205.599 35.9347 205.599 36.028V42.692C205.599 42.7853 205.571 42.86 205.515 42.916C205.459 42.972 205.385 43 205.291 43H205.053ZM204.899 34.222C204.806 34.222 204.731 34.194 204.675 34.138C204.619 34.082 204.591 34.0073 204.591 33.914V33.382C204.591 33.2887 204.619 33.214 204.675 33.158C204.731 33.0927 204.806 33.06 204.899 33.06H205.431C205.525 33.06 205.599 33.0927 205.655 33.158C205.721 33.214 205.753 33.2887 205.753 33.382V33.914C205.753 34.0073 205.721 34.082 205.655 34.138C205.599 34.194 205.525 34.222 205.431 34.222H204.899ZM210.635 43.14C209.963 43.14 209.398 43 208.941 42.72C208.493 42.44 208.147 42.0573 207.905 41.572C207.671 41.0867 207.545 40.5453 207.527 39.948C207.517 39.808 207.513 39.612 207.513 39.36C207.513 39.108 207.517 38.912 207.527 38.772C207.545 38.1653 207.671 37.624 207.905 37.148C208.147 36.6627 208.493 36.28 208.941 36C209.398 35.72 209.963 35.58 210.635 35.58C211.307 35.58 211.867 35.72 212.315 36C212.772 36.28 213.117 36.6627 213.351 37.148C213.593 37.624 213.724 38.1653 213.743 38.772C213.752 38.912 213.757 39.108 213.757 39.36C213.757 39.612 213.752 39.808 213.743 39.948C213.724 40.5453 213.593 41.0867 213.351 41.572C213.117 42.0573 212.772 42.44 212.315 42.72C211.867 43 211.307 43.14 210.635 43.14ZM210.635 42.328C211.288 42.328 211.82 42.118 212.231 41.698C212.641 41.278 212.861 40.6713 212.889 39.878C212.898 39.738 212.903 39.5653 212.903 39.36C212.903 39.1547 212.898 38.982 212.889 38.842C212.861 38.0393 212.641 37.4327 212.231 37.022C211.82 36.602 211.288 36.392 210.635 36.392C209.981 36.392 209.449 36.602 209.039 37.022C208.628 37.4327 208.409 38.0393 208.381 38.842C208.371 38.982 208.367 39.1547 208.367 39.36C208.367 39.5653 208.371 39.738 208.381 39.878C208.409 40.6713 208.628 41.278 209.039 41.698C209.449 42.118 209.981 42.328 210.635 42.328ZM215.977 43C215.884 43 215.809 42.972 215.753 42.916C215.697 42.86 215.669 42.7853 215.669 42.692V36.028C215.669 35.9347 215.697 35.86 215.753 35.804C215.809 35.748 215.884 35.72 215.977 35.72H216.215C216.308 35.72 216.383 35.748 216.439 35.804C216.495 35.86 216.523 35.9347 216.523 36.028V36.686C216.775 36.3593 217.078 36.0933 217.433 35.888C217.797 35.6827 218.278 35.58 218.875 35.58C219.51 35.58 220.037 35.72 220.457 36C220.886 36.2707 221.204 36.644 221.409 37.12C221.624 37.5867 221.731 38.1187 221.731 38.716V42.692C221.731 42.7853 221.703 42.86 221.647 42.916C221.591 42.972 221.516 43 221.423 43H221.185C221.092 43 221.017 42.972 220.961 42.916C220.905 42.86 220.877 42.7853 220.877 42.692V38.786C220.877 38.0393 220.695 37.456 220.331 37.036C219.967 36.6067 219.435 36.392 218.735 36.392C218.072 36.392 217.536 36.6067 217.125 37.036C216.724 37.456 216.523 38.0393 216.523 38.786V42.692C216.523 42.7853 216.495 42.86 216.439 42.916C216.383 42.972 216.308 43 216.215 43H215.977ZM228.026 43C227.933 43 227.858 42.972 227.802 42.916C227.746 42.86 227.718 42.7853 227.718 42.692V33.522C227.718 33.4193 227.746 33.34 227.802 33.284C227.858 33.228 227.933 33.2 228.026 33.2H233.43C233.533 33.2 233.612 33.228 233.668 33.284C233.724 33.34 233.752 33.4193 233.752 33.522V33.732C233.752 33.8253 233.724 33.9 233.668 33.956C233.612 34.012 233.533 34.04 233.43 34.04H228.6V37.806H233.15C233.253 37.806 233.332 37.834 233.388 37.89C233.444 37.946 233.472 38.0253 233.472 38.128V38.338C233.472 38.4313 233.444 38.506 233.388 38.562C233.332 38.618 233.253 38.646 233.15 38.646H228.6V42.692C228.6 42.7853 228.572 42.86 228.516 42.916C228.46 42.972 228.381 43 228.278 43H228.026ZM238.129 43.14C237.457 43.14 236.892 43 236.435 42.72C235.987 42.44 235.641 42.0573 235.399 41.572C235.165 41.0867 235.039 40.5453 235.021 39.948C235.011 39.808 235.007 39.612 235.007 39.36C235.007 39.108 235.011 38.912 235.021 38.772C235.039 38.1653 235.165 37.624 235.399 37.148C235.641 36.6627 235.987 36.28 236.435 36C236.892 35.72 237.457 35.58 238.129 35.58C238.801 35.58 239.361 35.72 239.809 36C240.266 36.28 240.611 36.6627 240.845 37.148C241.087 37.624 241.218 38.1653 241.237 38.772C241.246 38.912 241.251 39.108 241.251 39.36C241.251 39.612 241.246 39.808 241.237 39.948C241.218 40.5453 241.087 41.0867 240.845 41.572C240.611 42.0573 240.266 42.44 239.809 42.72C239.361 43 238.801 43.14 238.129 43.14ZM238.129 42.328C238.782 42.328 239.314 42.118 239.725 41.698C240.135 41.278 240.355 40.6713 240.383 39.878C240.392 39.738 240.397 39.5653 240.397 39.36C240.397 39.1547 240.392 38.982 240.383 38.842C240.355 38.0393 240.135 37.4327 239.725 37.022C239.314 36.602 238.782 36.392 238.129 36.392C237.475 36.392 236.943 36.602 236.533 37.022C236.122 37.4327 235.903 38.0393 235.875 38.842C235.865 38.982 235.861 39.1547 235.861 39.36C235.861 39.5653 235.865 39.738 235.875 39.878C235.903 40.6713 236.122 41.278 236.533 41.698C236.943 42.118 237.475 42.328 238.129 42.328ZM243.471 43C243.378 43 243.303 42.972 243.247 42.916C243.191 42.86 243.163 42.7853 243.163 42.692V36.042C243.163 35.9487 243.191 35.874 243.247 35.818C243.303 35.7527 243.378 35.72 243.471 35.72H243.695C243.789 35.72 243.863 35.7527 243.919 35.818C243.985 35.874 244.017 35.9487 244.017 36.042V36.686C244.185 36.3593 244.428 36.1167 244.745 35.958C245.063 35.7993 245.455 35.72 245.921 35.72H246.439C246.533 35.72 246.607 35.748 246.663 35.804C246.719 35.86 246.747 35.9347 246.747 36.028V36.224C246.747 36.3173 246.719 36.392 246.663 36.448C246.607 36.504 246.533 36.532 246.439 36.532H245.837C245.277 36.532 244.834 36.6953 244.507 37.022C244.181 37.3487 244.017 37.792 244.017 38.352V42.692C244.017 42.7853 243.985 42.86 243.919 42.916C243.863 42.972 243.789 43 243.695 43H243.471ZM248.338 43C248.245 43 248.17 42.972 248.114 42.916C248.058 42.86 248.03 42.7853 248.03 42.692V36.028C248.03 35.9347 248.058 35.86 248.114 35.804C248.17 35.748 248.245 35.72 248.338 35.72H248.576C248.67 35.72 248.744 35.748 248.8 35.804C248.856 35.86 248.884 35.9347 248.884 36.028V36.518C249.118 36.2193 249.393 35.9907 249.71 35.832C250.037 35.664 250.429 35.58 250.886 35.58C251.932 35.58 252.678 36.0187 253.126 36.896C253.341 36.4947 253.654 36.1773 254.064 35.944C254.484 35.7013 254.965 35.58 255.506 35.58C256.001 35.58 256.444 35.6967 256.836 35.93C257.238 36.154 257.55 36.49 257.774 36.938C258.008 37.386 258.124 37.946 258.124 38.618V42.692C258.124 42.7853 258.096 42.86 258.04 42.916C257.984 42.972 257.91 43 257.816 43H257.578C257.485 43 257.41 42.972 257.354 42.916C257.298 42.86 257.27 42.7853 257.27 42.692V38.758C257.27 38.142 257.182 37.666 257.004 37.33C256.827 36.9847 256.594 36.742 256.304 36.602C256.015 36.462 255.702 36.392 255.366 36.392C255.086 36.392 254.802 36.462 254.512 36.602C254.223 36.742 253.98 36.9847 253.784 37.33C253.598 37.666 253.504 38.142 253.504 38.758V42.692C253.504 42.7853 253.476 42.86 253.42 42.916C253.364 42.972 253.29 43 253.196 43H252.958C252.865 43 252.79 42.972 252.734 42.916C252.678 42.86 252.65 42.7853 252.65 42.692V38.758C252.65 38.142 252.557 37.666 252.37 37.33C252.184 36.9847 251.946 36.742 251.656 36.602C251.367 36.462 251.064 36.392 250.746 36.392C250.466 36.392 250.182 36.462 249.892 36.602C249.603 36.742 249.36 36.9847 249.164 37.33C248.978 37.666 248.884 38.1373 248.884 38.744V42.692C248.884 42.7853 248.856 42.86 248.8 42.916C248.744 42.972 248.67 43 248.576 43H248.338Z" fill="black"/>
<circle cx="402.5" cy="14" r="13.5" stroke="black"/>
<path d="M408.722 10.1111L400.167 18.6666L396.278 14.7778" stroke="black" stroke-width="3" stroke-linecap="round" stroke-linejoin="round"/>
<path d="M375.624 43C375.531 43 375.456 42.972 375.4 42.916C375.344 42.86 375.316 42.7853 375.316 42.692V33.522C375.316 33.4193 375.344 33.34 375.4 33.284C375.456 33.228 375.531 33.2 375.624 33.2H379.026C379.679 33.2 380.244 33.312 380.72 33.536C381.205 33.7507 381.579 34.0727 381.84 34.502C382.111 34.9313 382.246 35.4633 382.246 36.098C382.246 36.7327 382.111 37.2647 381.84 37.694C381.579 38.1233 381.205 38.45 380.72 38.674C380.244 38.8887 379.679 38.996 379.026 38.996H376.198V42.692C376.198 42.7853 376.17 42.86 376.114 42.916C376.058 42.972 375.979 43 375.876 43H375.624ZM376.198 38.156H378.956C379.768 38.156 380.37 37.9787 380.762 37.624C381.163 37.2693 381.364 36.7607 381.364 36.098C381.364 35.4353 381.163 34.9267 380.762 34.572C380.37 34.2173 379.768 34.04 378.956 34.04H376.198V38.156ZM385.762 43.14C385.314 43.14 384.899 43.0467 384.516 42.86C384.143 42.6733 383.839 42.426 383.606 42.118C383.373 41.8007 383.256 41.446 383.256 41.054C383.256 40.4193 383.513 39.9107 384.026 39.528C384.539 39.1453 385.207 38.898 386.028 38.786L388.24 38.478V37.988C388.24 37.4933 388.086 37.106 387.778 36.826C387.479 36.5367 386.999 36.392 386.336 36.392C385.851 36.392 385.459 36.49 385.16 36.686C384.861 36.8727 384.656 37.12 384.544 37.428C384.497 37.568 384.409 37.638 384.278 37.638H384.054C383.942 37.638 383.863 37.61 383.816 37.554C383.769 37.4887 383.746 37.414 383.746 37.33C383.746 37.1993 383.793 37.036 383.886 36.84C383.989 36.644 384.143 36.4527 384.348 36.266C384.553 36.07 384.819 35.9067 385.146 35.776C385.473 35.6453 385.869 35.58 386.336 35.58C386.887 35.58 387.339 35.6547 387.694 35.804C388.058 35.9533 388.338 36.1493 388.534 36.392C388.739 36.6253 388.884 36.8867 388.968 37.176C389.052 37.4653 389.094 37.75 389.094 38.03V42.692C389.094 42.7853 389.066 42.86 389.01 42.916C388.954 42.972 388.879 43 388.786 43H388.548C388.455 43 388.38 42.972 388.324 42.916C388.268 42.86 388.24 42.7853 388.24 42.692V42.034C388.128 42.202 387.969 42.37 387.764 42.538C387.559 42.706 387.293 42.8507 386.966 42.972C386.649 43.084 386.247 43.14 385.762 43.14ZM385.902 42.328C386.331 42.328 386.723 42.2347 387.078 42.048C387.433 41.8613 387.713 41.5767 387.918 41.194C388.133 40.802 388.24 40.312 388.24 39.724V39.248L386.434 39.5C385.669 39.6027 385.09 39.78 384.698 40.032C384.306 40.284 384.11 40.6013 384.11 40.984C384.11 41.292 384.199 41.544 384.376 41.74C384.553 41.936 384.777 42.0853 385.048 42.188C385.328 42.2813 385.613 42.328 385.902 42.328ZM392.417 45.66C392.342 45.66 392.277 45.632 392.221 45.576C392.165 45.52 392.137 45.4547 392.137 45.38C392.137 45.3427 392.141 45.3007 392.151 45.254C392.169 45.2167 392.193 45.1653 392.221 45.1L393.299 42.58L390.625 36.28C390.569 36.14 390.541 36.0467 390.541 36C390.541 35.9253 390.569 35.86 390.625 35.804C390.681 35.748 390.746 35.72 390.821 35.72H391.115C391.208 35.72 391.278 35.7433 391.325 35.79C391.381 35.8273 391.418 35.874 391.437 35.93L393.789 41.474L396.197 35.93C396.225 35.874 396.262 35.8273 396.309 35.79C396.355 35.7433 396.425 35.72 396.519 35.72H396.799C396.873 35.72 396.939 35.748 396.995 35.804C397.051 35.86 397.079 35.9253 397.079 36C397.079 36.0467 397.051 36.14 396.995 36.28L393.019 45.45C392.991 45.506 392.953 45.5527 392.907 45.59C392.86 45.6367 392.79 45.66 392.697 45.66H392.417ZM398.944 43C398.851 43 398.776 42.972 398.72 42.916C398.664 42.86 398.636 42.7853 398.636 42.692V36.028C398.636 35.9347 398.664 35.86 398.72 35.804C398.776 35.748 398.851 35.72 398.944 35.72H399.182C399.275 35.72 399.35 35.748 399.406 35.804C399.462 35.86 399.49 35.9347 399.49 36.028V36.518C399.723 36.2193 399.999 35.9907 400.316 35.832C400.643 35.664 401.035 35.58 401.492 35.58C402.537 35.58 403.284 36.0187 403.732 36.896C403.947 36.4947 404.259 36.1773 404.67 35.944C405.09 35.7013 405.571 35.58 406.112 35.58C406.607 35.58 407.05 35.6967 407.442 35.93C407.843 36.154 408.156 36.49 408.38 36.938C408.613 37.386 408.73 37.946 408.73 38.618V42.692C408.73 42.7853 408.702 42.86 408.646 42.916C408.59 42.972 408.515 43 408.422 43H408.184C408.091 43 408.016 42.972 407.96 42.916C407.904 42.86 407.876 42.7853 407.876 42.692V38.758C407.876 38.142 407.787 37.666 407.61 37.33C407.433 36.9847 407.199 36.742 406.91 36.602C406.621 36.462 406.308 36.392 405.972 36.392C405.692 36.392 405.407 36.462 405.118 36.602C404.829 36.742 404.586 36.9847 404.39 37.33C404.203 37.666 404.11 38.142 404.11 38.758V42.692C404.11 42.7853 404.082 42.86 404.026 42.916C403.97 42.972 403.895 43 403.802 43H403.564C403.471 43 403.396 42.972 403.34 42.916C403.284 42.86 403.256 42.7853 403.256 42.692V38.758C403.256 38.142 403.163 37.666 402.976 37.33C402.789 36.9847 402.551 36.742 402.262 36.602C401.973 36.462 401.669 36.392 401.352 36.392C401.072 36.392 400.787 36.462 400.498 36.602C400.209 36.742 399.966 36.9847 399.77 37.33C399.583 37.666 399.49 38.1373 399.49 38.744V42.692C399.49 42.7853 399.462 42.86 399.406 42.916C399.35 42.972 399.275 43 399.182 43H398.944ZM413.629 43.14C412.724 43.14 412.005 42.846 411.473 42.258C410.941 41.6607 410.638 40.8813 410.563 39.92C410.554 39.78 410.549 39.5933 410.549 39.36C410.549 39.1267 410.554 38.94 410.563 38.8C410.61 38.1653 410.759 37.6053 411.011 37.12C411.263 36.6347 411.608 36.2567 412.047 35.986C412.495 35.7153 413.022 35.58 413.629 35.58C414.282 35.58 414.838 35.7247 415.295 36.014C415.752 36.3033 416.102 36.7187 416.345 37.26C416.597 37.8013 416.723 38.4453 416.723 39.192V39.402C416.723 39.4953 416.69 39.57 416.625 39.626C416.569 39.682 416.494 39.71 416.401 39.71H411.417C411.417 39.71 411.417 39.7287 411.417 39.766C411.417 39.8033 411.417 39.8313 411.417 39.85C411.436 40.27 411.534 40.6713 411.711 41.054C411.888 41.4273 412.14 41.7353 412.467 41.978C412.794 42.2113 413.181 42.328 413.629 42.328C414.03 42.328 414.362 42.2673 414.623 42.146C414.894 42.0247 415.108 41.894 415.267 41.754C415.426 41.6047 415.528 41.4927 415.575 41.418C415.659 41.2967 415.724 41.2267 415.771 41.208C415.818 41.18 415.892 41.166 415.995 41.166H416.219C416.303 41.166 416.373 41.194 416.429 41.25C416.494 41.2967 416.522 41.362 416.513 41.446C416.504 41.5767 416.429 41.74 416.289 41.936C416.158 42.1227 415.967 42.3093 415.715 42.496C415.472 42.6827 415.174 42.8367 414.819 42.958C414.464 43.0793 414.068 43.14 413.629 43.14ZM411.417 38.926H415.869V38.87C415.869 38.4033 415.78 37.9833 415.603 37.61C415.426 37.2367 415.169 36.9427 414.833 36.728C414.497 36.504 414.096 36.392 413.629 36.392C413.162 36.392 412.761 36.504 412.425 36.728C412.098 36.9427 411.846 37.2367 411.669 37.61C411.501 37.9833 411.417 38.4033 411.417 38.87V38.926ZM418.878 43C418.784 43 418.71 42.972 418.654 42.916C418.598 42.86 418.57 42.7853 418.57 42.692V36.028C418.57 35.9347 418.598 35.86 418.654 35.804C418.71 35.748 418.784 35.72 418.878 35.72H419.116C419.209 35.72 419.284 35.748 419.34 35.804C419.396 35.86 419.424 35.9347 419.424 36.028V36.686C419.676 36.3593 419.979 36.0933 420.334 35.888C420.698 35.6827 421.178 35.58 421.776 35.58C422.41 35.58 422.938 35.72 423.358 36C423.787 36.2707 424.104 36.644 424.31 37.12C424.524 37.5867 424.632 38.1187 424.632 38.716V42.692C424.632 42.7853 424.604 42.86 424.548 42.916C424.492 42.972 424.417 43 424.324 43H424.086C423.992 43 423.918 42.972 423.862 42.916C423.806 42.86 423.778 42.7853 423.778 42.692V38.786C423.778 38.0393 423.596 37.456 423.232 37.036C422.868 36.6067 422.336 36.392 421.636 36.392C420.973 36.392 420.436 36.6067 420.026 37.036C419.624 37.456 419.424 38.0393 419.424 38.786V42.692C419.424 42.7853 419.396 42.86 419.34 42.916C419.284 42.972 419.209 43 419.116 43H418.878ZM429.168 43C428.683 43 428.3 42.8973 428.02 42.692C427.74 42.4867 427.544 42.2067 427.432 41.852C427.32 41.4973 427.264 41.1007 427.264 40.662V36.532H426.172C426.079 36.532 426.004 36.504 425.948 36.448C425.892 36.392 425.864 36.3173 425.864 36.224V36.028C425.864 35.9347 425.892 35.86 425.948 35.804C426.004 35.748 426.079 35.72 426.172 35.72H427.264V33.368C427.264 33.2747 427.292 33.2 427.348 33.144C427.404 33.088 427.479 33.06 427.572 33.06H427.81C427.903 33.06 427.978 33.088 428.034 33.144C428.09 33.2 428.118 33.2747 428.118 33.368V35.72H429.854C429.947 35.72 430.022 35.748 430.078 35.804C430.134 35.86 430.162 35.9347 430.162 36.028V36.224C430.162 36.3173 430.134 36.392 430.078 36.448C430.022 36.504 429.947 36.532 429.854 36.532H428.118V40.606C428.118 41.1007 428.197 41.488 428.356 41.768C428.524 42.048 428.818 42.188 429.238 42.188H429.994C430.087 42.188 430.162 42.216 430.218 42.272C430.274 42.328 430.302 42.4027 430.302 42.496V42.692C430.302 42.7853 430.274 42.86 430.218 42.916C430.162 42.972 430.087 43 429.994 43H429.168Z" fill="black"/>
</svg>
